<?xml version="1.0" encoding="UTF-8"?>
<svg version="1.1" xmlns="http://www.w3.org/2000/svg" width="500" height="500">
<path d="M0 0 C0.96340332 -0.00445668 0.96340332 -0.00445668 1.94626933 -0.0090034 C4.09633901 -0.01766816 6.24635286 -0.01919677 8.3964386 -0.02069092 C9.9390576 -0.02532074 11.48167546 -0.03034563 13.02429199 -0.03573608 C17.214608 -0.04884802 21.40490799 -0.05530293 25.59524131 -0.05974674 C28.21518719 -0.06267999 30.83512872 -0.06678532 33.4550724 -0.07125092 C41.65793547 -0.08492394 49.86078856 -0.09459101 58.06366223 -0.09845281 C67.52178986 -0.10293037 76.97977275 -0.12046503 86.43785638 -0.1494534 C93.75521758 -0.17109926 101.07253815 -0.18115867 108.38993102 -0.18249393 C112.75700658 -0.18354006 117.12394603 -0.18940679 121.49098778 -0.20731354 C125.60240704 -0.22384405 129.71358863 -0.22592569 133.82502937 -0.21717453 C135.32899997 -0.21640676 136.83298361 -0.22071241 138.33692169 -0.23063278 C149.64727368 -0.30082674 157.92570887 1.1827657 167.58125305 7.14044189 C167.58125305 7.80044189 167.58125305 8.46044189 167.58125305 9.14044189 C168.57125305 9.47044189 169.56125305 9.80044189 170.58125305 10.14044189 C170.58125305 10.80044189 170.58125305 11.46044189 170.58125305 12.14044189 C171.24125305 12.14044189 171.90125305 12.14044189 172.58125305 12.14044189 C173.40136617 13.69895945 174.21201518 15.26245906 175.01875305 16.82794189 C175.47121399 17.69805908 175.92367493 18.56817627 176.3898468 19.46466064 C181.33542737 30.57194814 179.72750285 46.12284168 179.65058899 58.03277588 C179.64533513 59.43923292 179.64051175 60.84569162 179.63607788 62.25215149 C179.62262954 66.01619036 179.60218902 69.78015663 179.5795126 73.54415011 C179.56552744 75.9035089 179.55293145 78.26287125 179.54076385 80.62224007 C179.4979493 88.87371286 179.44873804 97.12512236 179.39424133 105.37652588 C179.34382812 113.03947553 179.30869741 120.70239709 179.28030753 128.365457 C179.25505243 134.97825648 179.21844072 141.59093239 179.17322183 148.20362526 C179.14653904 152.13899449 179.12448065 156.07425348 179.11420441 160.00970268 C179.10422241 163.70442399 179.08005512 167.39879055 179.04527092 171.09335899 C179.03004413 173.08217737 179.02929302 175.07109038 179.02908325 177.05996704 C178.89564818 188.51938228 176.72113077 196.80637226 168.58125305 205.14044189 C162.47756755 209.90062167 156.48444103 212.3133854 148.73535156 212.75714111 C147.75169035 212.81353917 147.75169035 212.81353917 146.7481572 212.87107658 C139.54042602 213.25151976 132.33192987 213.28445533 125.11567688 213.27325439 C123.63541633 213.27457397 122.15515606 213.2762376 120.67489624 213.2782135 C115.8793377 213.28233413 111.08383258 213.27510622 106.2882843 213.26544189 C105.05690125 213.26309477 105.05690125 213.26309477 103.80064178 213.26070023 C96.03907523 213.24524044 88.27753256 213.22501389 80.51601124 213.19410706 C70.65031262 213.15517192 60.78517416 213.13947099 50.91940671 213.15489197 C43.94387284 213.16384558 36.96870734 213.14604207 29.99326915 213.10876465 C25.84237839 213.08730025 21.69223437 213.07729336 17.54131508 213.09631348 C13.6393697 213.11364965 9.73892218 213.09756372 5.83716393 213.05689049 C4.41510525 213.04768335 2.99291033 213.05009697 1.57090759 213.06571388 C-8.43161269 213.16607466 -15.42278716 211.30403255 -23.41874695 205.14044189 C-29.56386816 199.0040547 -30.75268305 195.02732154 -33.41874695 186.14044189 C-33.41874695 163.37044189 -33.41874695 140.60044189 -33.41874695 117.14044189 C12.78125305 117.14044189 58.98125305 117.14044189 106.58125305 117.14044189 C105.45689052 120.5135295 104.50782572 121.29167287 101.83125305 123.51544189 C98.59240868 126.26355227 95.54689808 129.0946443 92.58125305 132.14044189 C87.58125305 137.14044189 87.58125305 137.14044189 85.01875305 139.57794189 C80.0378439 144.62549895 80.0378439 144.62549895 78.64375305 151.26544189 C79.89164352 155.17533807 79.89164352 155.17533807 82.58125305 158.14044189 C87.78584589 159.51798291 87.78584589 159.51798291 92.73457336 158.09698486 C96.70276225 155.36962073 99.8965091 152.05041065 103.26094055 148.62091064 C103.99192963 147.88472 104.7229187 147.14852936 105.47605896 146.39002991 C107.80760702 144.04071521 110.13235995 141.68482705 112.45625305 139.32794189 C114.77383254 136.98261707 117.09289905 134.63881377 119.4150238 132.29798889 C120.85705432 130.84384155 122.29640514 129.38703012 123.73258972 127.92710876 C127.41970015 124.20373507 131.1705309 120.68413102 135.23167419 117.36988831 C136.72067858 116.16161384 136.72067858 116.16161384 137.58125305 114.14044189 C138.24125305 114.14044189 138.90125305 114.14044189 139.58125305 114.14044189 C141.55282577 108.15984293 141.55282577 108.15984293 140.26875305 102.26544189 C139.71187805 101.56419189 139.15500305 100.86294189 138.58125305 100.14044189 C138.25125305 99.15044189 137.92125305 98.16044189 137.58125305 97.14044189 C136.92125305 96.81044189 136.26125305 96.48044189 135.58125305 96.14044189 C133.58125305 95.14044189 133.58125305 95.14044189 132.58125305 92.14044189 C131.92125305 91.81044189 131.26125305 91.48044189 130.58125305 91.14044189 C128.58125305 90.14044189 128.58125305 90.14044189 127.58125305 87.14044189 C126.92125305 86.81044189 126.26125305 86.48044189 125.58125305 86.14044189 C123.58125305 85.14044189 123.58125305 85.14044189 122.58125305 82.14044189 C121.92125305 82.14044189 121.26125305 82.14044189 120.58125305 82.14044189 C120.58125305 81.48044189 120.58125305 80.82044189 120.58125305 80.14044189 C119.59125305 79.81044189 118.60125305 79.48044189 117.58125305 79.14044189 C117.58125305 78.48044189 117.58125305 77.82044189 117.58125305 77.14044189 C116.94187805 76.87231689 116.30250305 76.60419189 115.64375305 76.32794189 C113.58125305 75.14044189 113.58125305 75.14044189 112.58125305 72.14044189 C111.92125305 71.81044189 111.26125305 71.48044189 110.58125305 71.14044189 C108.58125305 70.14044189 108.58125305 70.14044189 107.58125305 67.14044189 C106.92125305 66.81044189 106.26125305 66.48044189 105.58125305 66.14044189 C103.58125305 65.14044189 103.58125305 65.14044189 102.58125305 62.14044189 C101.92125305 61.81044189 101.26125305 61.48044189 100.58125305 61.14044189 C98.58125305 60.14044189 98.58125305 60.14044189 97.58125305 57.14044189 C95.69809146 56.03207767 95.69809146 56.03207767 93.58125305 55.14044189 C92.09625305 54.15044189 92.09625305 54.15044189 90.58125305 53.14044189 C86.62901058 52.80408083 83.91235672 52.94026848 80.58125305 55.14044189 C79.22493578 58.02900044 78.7355286 60.96126358 78.58125305 64.14044189 C79.75400299 67.01436011 79.75400299 67.01436011 81.58125305 69.14044189 C81.91125305 70.13044189 82.24125305 71.12044189 82.58125305 72.14044189 C83.24125305 72.47044189 83.90125305 72.80044189 84.58125305 73.14044189 C85.24125305 73.47044189 85.90125305 73.80044189 86.58125305 74.14044189 C86.91125305 75.13044189 87.24125305 76.12044189 87.58125305 77.14044189 C88.24125305 77.47044189 88.90125305 77.80044189 89.58125305 78.14044189 C90.24125305 78.47044189 90.90125305 78.80044189 91.58125305 79.14044189 C91.91125305 80.13044189 92.24125305 81.12044189 92.58125305 82.14044189 C93.24125305 82.47044189 93.90125305 82.80044189 94.58125305 83.14044189 C95.24125305 83.47044189 95.90125305 83.80044189 96.58125305 84.14044189 C96.91125305 85.13044189 97.24125305 86.12044189 97.58125305 87.14044189 C98.24125305 87.47044189 98.90125305 87.80044189 99.58125305 88.14044189 C100.24125305 88.47044189 100.90125305 88.80044189 101.58125305 89.14044189 C101.91125305 90.13044189 102.24125305 91.12044189 102.58125305 92.14044189 C104.58141771 93.34926286 104.58141771 93.34926286 106.58125305 94.14044189 C106.58125305 94.80044189 106.58125305 95.46044189 106.58125305 96.14044189 C99.98847224 97.34125586 93.47953661 97.28114749 86.79292297 97.26983643 C85.51739563 97.27158875 84.24186829 97.27334106 82.9276886 97.27514648 C79.44666513 97.27968563 75.96567147 97.2779464 72.48464751 97.2747674 C68.83808168 97.2722283 65.19151833 97.2745854 61.54495239 97.27615356 C55.42789758 97.27796958 49.31085486 97.27558264 43.19380188 97.27081299 C36.117646 97.26535929 29.04151888 97.26714332 21.96536368 97.27263939 C15.88625822 97.27717221 9.80716143 97.27782061 3.72805482 97.27520072 C0.09850582 97.27364045 -3.53102964 97.27343764 -7.16057777 97.27673721 C-11.19953249 97.28015311 -15.23843724 97.27542352 -19.27738953 97.26983643 C-20.48414841 97.27186066 -21.69090729 97.27388489 -22.93423462 97.27597046 C-24.02912201 97.27315063 -25.1240094 97.27033081 -26.2520752 97.26742554 C-27.20717893 97.26704851 -28.16228266 97.26667149 -29.14632893 97.26628304 C-31.41874695 97.14044189 -31.41874695 97.14044189 -33.41874695 96.14044189 C-33.48854046 87.31670641 -33.54170621 78.4930673 -33.57418346 69.66911507 C-33.58977816 65.57091583 -33.61090173 61.47290674 -33.64506531 57.37481689 C-33.67788173 53.41311676 -33.69564645 49.45159846 -33.70337868 45.4897728 C-33.7088825 43.98523983 -33.71962916 42.48071578 -33.73593712 40.97626114 C-33.84053771 30.91813354 -33.82991246 20.50283169 -27.41874695 12.14044189 C-26.75874695 12.14044189 -26.09874695 12.14044189 -25.41874695 12.14044189 C-25.08874695 11.15044189 -24.75874695 10.16044189 -24.41874695 9.14044189 C-23.75874695 9.14044189 -23.09874695 9.14044189 -22.41874695 9.14044189 C-22.41874695 8.48044189 -22.41874695 7.82044189 -22.41874695 7.14044189 C-20.50463138 6.15629757 -18.58735025 5.17830841 -16.66874695 4.20294189 C-15.6014032 3.65766846 -14.53405945 3.11239502 -13.43437195 2.55059814 C-8.78209946 0.37511839 -5.1412981 0.01330147 0 0 Z " fill="#050505" transform="translate(177.4187469482422,107.85955810546875)"/>
<path d="M0 0 C3.90077246 3.68991989 6.60857718 7.21715436 9 12 C4.58848955 10.52949652 2.14860084 6.95377777 0 3 C0 2.01 0 1.02 0 0 Z " fill="#A0A0A0" transform="translate(147,301)"/>
</svg>
