<?xml version="1.0" encoding="UTF-8"?>
<svg version="1.1" xmlns="http://www.w3.org/2000/svg" width="500" height="500">
<path d="M0 0 C1.28132812 -0.01224609 2.56265625 -0.02449219 3.8828125 -0.03710938 C29.0627768 -0.07541561 53.10838105 7.6327383 74.25 21.1875 C75.14976562 21.74824219 76.04953125 22.30898438 76.9765625 22.88671875 C81.60512082 25.84584349 81.60512082 25.84584349 83.25 27.1875 C83.25 27.8475 83.25 28.5075 83.25 29.1875 C84.26513672 29.47173828 84.26513672 29.47173828 85.30078125 29.76171875 C89.4552597 31.77017522 92.23310842 34.72439972 95.4375 38 C96.10096436 38.67434082 96.76442871 39.34868164 97.44799805 40.04345703 C112.65992481 55.74430564 123.15133415 73.58033595 130.25 94.1875 C130.58773438 95.15558594 130.92546875 96.12367187 131.2734375 97.12109375 C132.03069738 99.4641008 132.67591554 101.79344565 133.25 104.1875 C133.53810547 105.38632813 133.53810547 105.38632813 133.83203125 106.609375 C140.66980804 140.65068102 135.31246019 181.21034468 117.25 211.1875 C116.82203125 211.92871094 116.3940625 212.66992188 115.953125 213.43359375 C111.39062982 221.23853635 106.29696097 228.6920134 101.25 236.1875 C92.61075924 248.87547892 92.61075924 248.87547892 84.67578125 262.00390625 C84.20527344 262.72449219 83.73476563 263.44507813 83.25 264.1875 C82.59 264.1875 81.93 264.1875 81.25 264.1875 C80.96125 264.93 80.6725 265.6725 80.375 266.4375 C79.42697356 268.75489797 78.40154089 270.96667115 77.25 273.1875 C76.59 273.1875 75.93 273.1875 75.25 273.1875 C75.064375 273.97125 74.87875 274.755 74.6875 275.5625 C73.11183613 279.53591324 71.07638013 282.43017292 68.58203125 285.875 C65.45006346 290.25608518 62.5530429 294.79391018 59.625 299.3125 C59.07481201 300.1595752 58.52462402 301.00665039 57.95776367 301.87939453 C57.42256104 302.70552246 56.8873584 303.53165039 56.3359375 304.3828125 C55.81612305 305.18493164 55.29630859 305.98705078 54.76074219 306.81347656 C52.88177032 309.76614664 51.08589501 312.76608164 49.31494141 315.78466797 C48.96351074 316.24760254 48.61208008 316.71053711 48.25 317.1875 C47.59 317.1875 46.93 317.1875 46.25 317.1875 C45.981875 317.91195313 45.71375 318.63640625 45.4375 319.3828125 C44.25709345 322.17074639 42.89479263 324.52414215 41.25 327.0625 C40.321875 328.49722656 40.321875 328.49722656 39.375 329.9609375 C36.5903365 334.18912142 33.78530019 338.40345019 30.9609375 342.60522461 C27.72279819 347.43325555 24.63648298 352.33530334 21.625 357.30859375 C21.17125 357.92863281 20.7175 358.54867188 20.25 359.1875 C19.59 359.1875 18.93 359.1875 18.25 359.1875 C17.92 360.8375 17.59 362.4875 17.25 364.1875 C16.59 364.1875 15.93 364.1875 15.25 364.1875 C14.9096875 365.18910156 14.9096875 365.18910156 14.5625 366.2109375 C12.86722383 370.05558166 10.6156641 373.35187137 8.25 376.8125 C7.79882812 377.48023438 7.34765625 378.14796875 6.8828125 378.8359375 C6.04509226 380.07516862 5.20547254 381.3131195 4.36328125 382.54931641 C3.31666809 384.08939849 2.28288273 385.6381759 1.25 387.1875 C-2.52267732 385.92994089 -2.91675257 384.73011272 -4.9375 381.375 C-8.1843535 376.07203672 -11.61824367 370.9345058 -15.1484375 365.81640625 C-16.55861335 363.50165419 -17.3124372 361.8316295 -17.75 359.1875 C-18.41 359.1875 -19.07 359.1875 -19.75 359.1875 C-21.23046875 357.16796875 -21.23046875 357.16796875 -22.9375 354.375 C-23.55625 353.37597656 -24.175 352.37695312 -24.8125 351.34765625 C-25.7715625 349.78337891 -25.7715625 349.78337891 -26.75 348.1875 C-27.97427705 346.22610615 -29.20324202 344.26762848 -30.4375 342.3125 C-30.97761719 341.44882812 -31.51773438 340.58515625 -32.07421875 339.6953125 C-33.71647254 337.14867729 -33.71647254 337.14867729 -35.70703125 334.8046875 C-37.65026616 332.3152661 -39.18451479 329.76180365 -40.71386719 327.00390625 C-42.44800685 323.96384992 -44.41593921 321.08572431 -46.375 318.1875 C-47.26173963 316.86589942 -48.14845777 315.54428443 -49.03515625 314.22265625 C-49.4852002 313.55379395 -49.93524414 312.88493164 -50.39892578 312.19580078 C-55.94201896 303.95628425 -61.45627723 295.69695714 -66.875 287.375 C-67.2656665 286.78195068 -67.65633301 286.18890137 -68.05883789 285.57788086 C-70.75 281.41847845 -70.75 281.41847845 -70.75 279.1875 C-71.41 279.1875 -72.07 279.1875 -72.75 279.1875 C-73.41 277.2075 -74.07 275.2275 -74.75 273.1875 C-75.41 273.1875 -76.07 273.1875 -76.75 273.1875 C-80.75 266.4375 -80.75 266.4375 -80.75 264.1875 C-81.41 264.1875 -82.07 264.1875 -82.75 264.1875 C-83.9765625 262.421875 -83.9765625 262.421875 -85.375 259.9375 C-88.91441415 253.84184229 -92.81233774 248.03115836 -96.75 242.1875 C-98.84948852 239.04592337 -100.94452513 235.90138035 -103.03369141 232.75292969 C-104.95702852 229.85794897 -106.89461634 226.98011064 -108.8828125 224.12890625 C-126.18964594 199.11883519 -135.14157233 169.29986087 -135.06567383 139.01635742 C-135.06251807 136.39003774 -135.08603625 133.76485289 -135.11132812 131.13867188 C-135.17200661 115.13283736 -132.26865291 101.23535839 -126.75 86.1875 C-126.39292969 85.18203125 -126.03585938 84.1765625 -125.66796875 83.140625 C-119.09334715 65.94903496 -107.24259007 50.51594231 -94.4375 37.5 C-93.8506543 36.89913574 -93.26380859 36.29827148 -92.65917969 35.67919922 C-89.47658473 32.5320472 -86.99565097 30.75738551 -82.75 29.1875 C-82.255 27.7025 -82.255 27.7025 -81.75 26.1875 C-80.30151367 24.97998047 -80.30151367 24.97998047 -78.41796875 23.8046875 C-77.71236816 23.36398926 -77.00676758 22.92329102 -76.27978516 22.46923828 C-75.50683105 22.00501465 -74.73387695 21.54079102 -73.9375 21.0625 C-73.1336084 20.57894043 -72.3297168 20.09538086 -71.50146484 19.59716797 C-48.73942127 6.20540377 -26.32697472 0.01308498 0 0 Z M-40.53125 105.0859375 C-48.82821613 115.11849349 -51.46993772 127.81740151 -50.4921875 140.54296875 C-48.80250503 153.64568829 -43.92357315 164.8816978 -33.84375 173.7421875 C-19.57014476 184.73574709 -6.95327378 187.57982345 10.89453125 185.9453125 C24.31385246 183.5757747 35.87192052 173.36722525 43.71484375 162.6875 C51.6806185 149.71524596 52.64496649 135.77466371 49.25 121.1875 C45.71801955 108.18515437 36.73373847 97.92159026 25.25 91.1875 C1.37187151 79.06699101 -22.78969696 86.17717702 -40.53125 105.0859375 Z " fill="#040404" transform="translate(249.75,20.8125)"/>
<path d="M0 0 C0.66 0.33 1.32 0.66 2 1 C1.26418258 2.1549921 0.51069961 3.29874185 -0.25 4.4375 C-0.66765625 5.07558594 -1.0853125 5.71367188 -1.515625 6.37109375 C-3.29819277 8.32722733 -4.46650866 8.45674635 -7 9 C-8.3927289 10.61736259 -9.71937515 12.2925002 -11 14 C-14.13837762 17.29932007 -17.39522442 20.21917312 -21 23 C-21 19.3506974 -20.38702198 19.0027215 -17.89453125 16.49609375 C-17.24033203 15.83802734 -16.58613281 15.17996094 -15.91210938 14.50195312 C-15.21923828 13.82068359 -14.52636719 13.13941406 -13.8125 12.4375 C-13.13896484 11.75236328 -12.46542969 11.06722656 -11.77148438 10.36132812 C-11.11083984 9.70455078 -10.45019531 9.04777344 -9.76953125 8.37109375 C-9.16729736 7.77224365 -8.56506348 7.17339355 -7.94458008 6.55639648 C-6 5 -6 5 -3.3269043 3.97680664 C-2.55902588 3.65446045 -1.79114746 3.33211426 -1 3 C-0.67 2.01 -0.34 1.02 0 0 Z " fill="#8C8C8C" transform="translate(168,47)"/>
<path d="M0 0 C1.32 0.33 2.64 0.66 4 1 C0.7 3.64 -2.6 6.28 -6 9 C-6 5.51876869 -5.58848696 5.13479364 -3.25 2.75 C-2.73953125 2.20859375 -2.2290625 1.6671875 -1.703125 1.109375 C-0.86007813 0.56023438 -0.86007813 0.56023438 0 0 Z " fill="#6A6A6A" transform="translate(153,61)"/>
</svg>
