<?xml version="1.0" encoding="UTF-8"?>
<svg version="1.1" xmlns="http://www.w3.org/2000/svg" width="500" height="500">
<path d="M0 0 C0.97610841 -0.00384115 1.95221682 -0.00768229 2.95790428 -0.01163983 C4.04309272 -0.01077335 5.12828116 -0.00990687 6.2463541 -0.00901413 C7.38919206 -0.01198525 8.53203001 -0.01495637 9.70949942 -0.01801753 C12.89582811 -0.0252207 16.08212406 -0.02787861 19.26845968 -0.028615 C22.69932977 -0.03046079 26.13018806 -0.03800567 29.56105137 -0.04475021 C37.06914983 -0.05835306 44.57724297 -0.06436117 52.08535171 -0.06876087 C56.76944801 -0.07151977 61.45354224 -0.07575644 66.13763714 -0.08026505 C79.0952841 -0.09245982 92.05292939 -0.10275901 105.01058197 -0.10614014 C105.84047488 -0.1063597 106.67036778 -0.10657927 107.52540896 -0.10680549 C108.77329858 -0.10713291 108.77329858 -0.10713291 110.0463981 -0.10746694 C111.73231789 -0.10791041 113.41823767 -0.10835697 115.10415745 -0.10880661 C116.35858047 -0.10913875 116.35858047 -0.10913875 117.63834537 -0.10947761 C131.19726145 -0.11342788 144.75612385 -0.13088793 158.31501918 -0.15416613 C172.22099525 -0.1778484 186.12694435 -0.19034054 200.03294092 -0.19150805 C207.84663092 -0.19242653 215.66025098 -0.19822215 223.47392178 -0.21632767 C230.12588258 -0.23168654 236.77775186 -0.23687417 243.42972701 -0.22858956 C246.82642266 -0.22466811 250.22293374 -0.22568478 253.61960697 -0.23964691 C257.29523744 -0.25223061 260.97038628 -0.24656391 264.64601231 -0.23606491 C266.27044889 -0.24814952 266.27044889 -0.24814952 267.92770237 -0.26047826 C268.90641853 -0.25388841 269.88513469 -0.24729857 270.89350891 -0.24050903 C271.74278094 -0.24110612 272.59205296 -0.24170321 273.46706051 -0.24231839 C274.1411233 -0.11898216 274.81518609 0.00435407 275.50967503 0.13142776 C277.82391289 3.60278455 277.6569752 4.25604838 277.11905003 8.22517776 C276.92182346 9.75561722 276.92182346 9.75561722 276.72061253 11.31697464 C276.49244846 12.95762894 276.49244846 12.95762894 276.25967503 14.63142776 C275.96163424 16.92294311 275.66476825 19.21461154 275.36905003 21.50642776 C275.22016331 22.63822464 275.07127659 23.77002151 274.91787815 24.93611526 C274.37806962 29.16160216 273.93236402 33.39289987 273.50967503 37.63142776 C272.76468307 44.95533275 271.90210519 52.26160359 271.00967503 59.56892776 C269.99555673 67.88268966 269.07908476 76.19665827 268.27920628 84.53352737 C267.53049975 92.20546794 266.60766136 99.85403695 265.65030003 107.50252151 C264.86800118 113.83744152 264.19343881 120.17792835 263.56826878 126.52986526 C262.49340021 137.4490603 261.2922539 148.35263268 260.07217503 159.25642776 C259.85036796 161.24649425 259.62860737 163.23656592 259.40689182 165.22664261 C258.11937723 176.76664067 256.80761358 188.30349531 255.46304417 199.83699417 C254.68760378 206.51145956 253.96759978 213.18999284 253.27847385 219.87385941 C252.45715056 227.77392588 251.54506197 235.66340108 250.61294651 243.5511055 C250.02764619 248.52229546 249.46089349 253.48949069 249.01358128 258.47517776 C248.09601681 268.49780504 246.9566429 277.68445989 239.50967503 285.13142776 C233.88752346 288.85847206 229.76306757 290.27978966 223.09640598 290.27186966 C222.32305558 290.27484078 221.54970518 290.2778119 220.75291991 290.28087306 C218.14741342 290.28958235 215.54195276 290.29107019 212.93643284 290.29256058 C211.07397456 290.29718722 209.21151723 290.30221167 207.34906101 290.30760574 C202.27869071 290.32074768 197.20833367 290.32717834 192.13794899 290.3316164 C188.97162096 290.33454461 185.80529658 290.33864896 182.63897038 290.34312057 C172.73658841 290.35680104 162.83421474 290.36646466 152.93182397 290.37032247 C141.49326939 290.37480289 130.05483432 290.3923478 118.61631608 290.42132306 C109.78058382 290.44292954 100.94488521 290.45302622 92.10912681 290.45436358 C86.82942126 290.45541247 81.54982797 290.46133798 76.27015018 290.4791832 C71.30270989 290.49564568 66.33546645 290.49782822 61.36800861 290.48904419 C59.54510694 290.4882728 57.72219476 290.49262989 55.89931965 290.50250244 C53.40960435 290.5151952 50.92058904 290.50935985 48.43087864 290.49892044 C47.71043975 290.50697685 46.99000086 290.51503325 46.24773049 290.52333379 C39.62625855 290.45845542 34.83340607 287.9683385 29.89248753 283.63533401 C22.00734396 275.05968353 22.02098727 261.76126719 20.93573093 250.78984451 C20.51625255 246.55486759 20.07790671 242.32182136 19.64248753 238.08845901 C19.55119068 237.19635223 19.45989384 236.30424545 19.36583042 235.38510513 C18.32728218 225.27312083 17.20227399 215.17102122 16.07217503 205.06892776 C15.86161945 203.18343251 15.65108898 201.29793445 15.44058323 199.41243362 C15.12122591 196.55297826 14.80172634 193.69353906 14.48185825 190.83414078 C13.71209918 183.95193848 12.94749603 177.0691763 12.18545628 170.18611526 C10.31088151 153.26003305 8.43437425 136.33480954 6.46231174 119.41975784 C5.68707675 112.74660192 4.96679696 106.06942039 4.27847385 99.38679886 C3.47052938 91.60960675 2.56445457 83.84403881 1.65030003 76.07869339 C0.81388873 68.92828597 0.04196227 61.77253058 -0.70574856 54.61243057 C-1.22480874 49.64369158 -1.75337871 44.67613225 -2.29299831 39.70958328 C-2.64793552 36.44072091 -2.9991723 33.17146519 -3.35018826 29.90217972 C-3.529087 28.24349515 -3.70945973 26.58496899 -3.89120388 24.92659378 C-4.15998736 22.47054292 -4.42331317 20.0139571 -4.68563747 17.55720901 C-4.76685848 16.82689972 -4.84807949 16.09659042 -4.93176174 15.34415054 C-5.43363938 10.58043183 -5.64316664 5.92278255 -5.49032497 1.13142776 C-3.89126558 -0.46763163 -2.21597855 0.00325307 0 0 Z " fill="#030303" transform="translate(114.49032497406006,124.86857223510742)"/>
<path d="M0 0 C0.91498449 0.00052935 1.82996899 0.00105869 2.77268028 0.00160408 C5.93629201 0.00489936 9.09983343 0.01575399 12.26342773 0.02661133 C14.63196243 0.0312148 17.00049787 0.03544466 19.36903381 0.03935242 C24.93176575 0.04982725 30.49447326 0.0641455 36.05718994 0.08074951 C43.16603002 0.10186412 50.27487081 0.11845681 57.38372803 0.13262939 C82.05725647 0.18231036 106.73064003 0.25079178 131.4040432 0.34437752 C143.43520689 0.38969143 155.46633604 0.42916539 167.49755859 0.45507812 C178.15587024 0.47804008 188.8140892 0.51134812 199.47232729 0.55734414 C205.06873805 0.58116193 210.66505826 0.59996943 216.26151848 0.60625648 C221.48005331 0.61229329 226.69834933 0.63224147 231.91679573 0.66291809 C233.82434559 0.67169709 235.73192661 0.67542118 237.63949585 0.67365074 C240.24613994 0.67199481 242.85205856 0.68871982 245.45860291 0.70991516 C246.20710083 0.70506759 246.95559876 0.70022001 247.72677845 0.69522554 C254.23932243 0.78238936 259.64586172 2.25770972 264.82202148 6.42114258 C268.43412868 10.98939579 269.38196805 15.27190714 269.19311523 21.09301758 C268.58574694 26.06765316 266.68526354 29.73825333 262.94702148 32.98364258 C259.33627328 35.54125589 256.93492168 36.23357234 252.62452412 36.23448372 C251.73666889 36.23709147 250.84881365 36.23969921 249.93405372 36.24238598 C248.9576234 36.24015526 247.98119307 36.23792454 246.97517395 36.23562622 C245.42017851 36.23796621 245.42017851 36.23796621 243.83376902 36.24035347 C240.34261562 36.24435786 236.85150533 36.24117583 233.36035156 36.23803711 C230.86373367 36.2393915 228.36711597 36.24117165 225.87049866 36.24334717 C219.77948271 36.2474443 213.68848382 36.24682928 207.59746853 36.24393453 C202.64058212 36.2416765 197.68369915 36.24136972 192.72681236 36.24245834 C192.02134592 36.24261158 191.31587948 36.24276481 190.58903527 36.24292269 C189.15573957 36.24324242 187.72244387 36.24356664 186.28914817 36.24389528 C172.83358825 36.24674979 159.37803512 36.24346491 145.92247631 36.23809491 C134.40306672 36.2336395 122.88366722 36.2343924 111.36425781 36.23901367 C97.97712449 36.24438174 84.58999717 36.24646184 71.20286292 36.24340141 C69.7708538 36.24308288 68.33884468 36.24276851 66.90683556 36.24245834 C66.20235969 36.24230407 65.49788381 36.24214979 64.77206019 36.24199084 C59.8337596 36.24113143 54.89546285 36.24257638 49.95716286 36.2449379 C43.28497896 36.24805837 36.61281683 36.24579255 29.94063377 36.24004364 C27.50110277 36.23872948 25.06157015 36.23908711 22.62203979 36.2413063 C1.44802216 36.25877992 1.44802216 36.25877992 -8.19477844 35.78805542 C-9.37055608 35.73121519 -10.54633371 35.67437496 -11.75774097 35.6158123 C-16.70159456 34.85490423 -21.72757486 33.31691621 -24.92797852 29.23364258 C-27.00210395 26.18345812 -27.78924269 24.71303223 -28.05297852 21.10864258 C-28.13547852 19.99489258 -28.21797852 18.88114258 -28.30297852 17.73364258 C-27.95718584 12.7196488 -26.94319281 9.04231008 -23.35375977 5.37036133 C-16.37640791 -0.37327409 -8.67284438 -0.04395641 0 0 Z " fill="#101010" transform="translate(127.052978515625,70.891357421875)"/>
<path d="M0 0 C2.48880477 2.17770418 4.91250251 4.31616296 7.15625 6.74609375 C7.15625 7.40609375 7.15625 8.06609375 7.15625 8.74609375 C7.81625 8.74609375 8.47625 8.74609375 9.15625 8.74609375 C9.15625 9.73609375 9.15625 10.72609375 9.15625 11.74609375 C9.81625 11.74609375 10.47625 11.74609375 11.15625 11.74609375 C12.17126998 13.61300549 13.16767079 15.49004719 14.15625 17.37109375 C14.713125 18.41523437 15.27 19.459375 15.84375 20.53515625 C17.15625 23.74609375 17.15625 23.74609375 17.15625 29.74609375 C-14.52375 29.74609375 -46.20375 29.74609375 -78.84375 29.74609375 C-78.84375 24.0092365 -78.50503931 22.34599152 -75.96875 17.55859375 C-75.43507812 16.53378906 -74.90140625 15.50898437 -74.3515625 14.453125 C-72.84375 11.74609375 -72.84375 11.74609375 -70.84375 8.74609375 C-70.18375 8.74609375 -69.52375 8.74609375 -68.84375 8.74609375 C-68.58335937 8.15570312 -68.32296875 7.5653125 -68.0546875 6.95703125 C-63.46978181 -1.41411914 -52.9910154 -6.30135538 -44.2734375 -9.0703125 C-28.96002594 -12.59091998 -12.42639295 -9.84894056 0 0 Z " fill="#0D0D0D" transform="translate(280.84375,23.25390625)"/>
<path d="M0 0 C-1.38188453 3.21043882 -2.92421903 5.04936365 -5.625 7.25 C-6.57246094 8.03117187 -6.57246094 8.03117187 -7.5390625 8.828125 C-8.02117187 9.21484375 -8.50328125 9.6015625 -9 10 C-9.33 9.34 -9.66 8.68 -10 8 C-9.34 8 -8.68 8 -8 8 C-7.7525 7.4225 -7.505 6.845 -7.25 6.25 C-5.58207452 3.24773413 -3.67725381 0 0 0 Z " fill="#747474" transform="translate(220,24)"/>
<path d="M0 0 C0.66 0.33 1.32 0.66 2 1 C1.16855469 1.81404297 1.16855469 1.81404297 0.3203125 2.64453125 C-0.76636719 3.71767578 -0.76636719 3.71767578 -1.875 4.8125 C-2.59429687 5.52019531 -3.31359375 6.22789063 -4.0546875 6.95703125 C-6.15358937 9.04399194 -6.15358937 9.04399194 -8 12 C-7.49572053 7.58755464 -5.98672249 5.25025683 -3 2 C-2.01 1.34 -1.02 0.68 0 0 Z " fill="#686868" transform="translate(108,73)"/>
</svg>
